HIERARCHY
ROOT Hips
{
	OFFSET 0.000000 0.000000 0.000000
	CHANNELS 6 Xposition Yposition Zposition Xrotation Yrotation Zrotation
	JOINT LeftUpLeg_virtual
	{
		OFFSET 0.000000 0.000000 0.000000
		CHANNELS 3 Xrotation Yrotation Zrotation
		JOINT LeftUpLeg
		{
			OFFSET 13.026900 -6.336304 -1.092800
			CHANNELS 3 Xrotation Yrotation Zrotation
			JOINT LeftLeg
			{
				OFFSET 0.524474 -46.096886 9.782700
				CHANNELS 3 Xrotation Yrotation Zrotation
				JOINT LeftFoot
				{
					OFFSET -0.524474 -53.427422 -12.948200
					CHANNELS 3 Xrotation Yrotation Zrotation
					JOINT LeftToeBase
					{
						OFFSET 0.192200 -14.009700 16.364100
						CHANNELS 3 Xrotation Yrotation Zrotation
						JOINT LeftToe_End
						{
							OFFSET -1.784700 -0.561700 9.474800
							CHANNELS 3 Xrotation Yrotation Zrotation
							End Site
							{
								OFFSET 0 0 0
							}
						}
					}
				}
			}
		}
	}
	JOINT RightUpLeg_virtual
	{
		OFFSET 0.000000 0.000000 0.000000
		CHANNELS 3 Xrotation Yrotation Zrotation
		JOINT RightUpLeg
		{
			OFFSET -12.883000 -6.336304 -1.092800
			CHANNELS 3 Xrotation Yrotation Zrotation
			JOINT RightLeg
			{
				OFFSET -0.524587 -46.096825 9.782800
				CHANNELS 3 Xrotation Yrotation Zrotation
				JOINT RightFoot
				{
					OFFSET 0.524587 -53.427383 -12.948300
					CHANNELS 3 Xrotation Yrotation Zrotation
					JOINT RightToeBase
					{
						OFFSET -0.192200 -14.009700 16.364100
						CHANNELS 3 Xrotation Yrotation Zrotation
						JOINT RightToe_End
						{
							OFFSET 1.784700 -0.561700 9.474800
							CHANNELS 3 Xrotation Yrotation Zrotation
							End Site
							{
								OFFSET 0 0 0
							}
						}
					}
				}
			}
		}
	}
	JOINT Spine_virtual
	{
		OFFSET 0.000000 0.000000 0.000000
		CHANNELS 3 Xrotation Yrotation Zrotation
		JOINT Spine
		{
			OFFSET 0.072000 7.257294 -0.789700
			CHANNELS 3 Xrotation Yrotation Zrotation
			JOINT Spine1
			{
				OFFSET 0.000000 12.508769 -0.658067
				CHANNELS 3 Xrotation Yrotation Zrotation
				JOINT Spine1_split
				{
					OFFSET 0.000000 12.508769 -0.658067
					CHANNELS 3 Xrotation Yrotation Zrotation
					JOINT Spine2
					{
						OFFSET 0.000000 12.508769 -0.658067
						CHANNELS 3 Xrotation Yrotation Zrotation
						JOINT Neck_virtual
						{
							OFFSET 0.000000 0.000000 0.000000
							CHANNELS 3 Xrotation Yrotation Zrotation
							JOINT Neck
							{
								OFFSET 0.000000 14.033295 7.520400
								CHANNELS 3 Xrotation Yrotation Zrotation
								JOINT Head
								{
									OFFSET 0.000000 8.198502 5.703100
									CHANNELS 3 Xrotation Yrotation Zrotation
									JOINT HeadTop_End
									{
										OFFSET 0.000000 17.760803 13.332701
										CHANNELS 3 Xrotation Yrotation Zrotation
										End Site
										{
											OFFSET 0 0 0
										}
									}
								}
							}
						}
						JOINT LeftShoulder_virtual
						{
							OFFSET 0.000000 0.000000 0.000000
							CHANNELS 3 Xrotation Yrotation Zrotation
							JOINT LeftShoulder
							{
								OFFSET 6.292450 5.785301 -0.669000
								CHANNELS 3 Xrotation Yrotation Zrotation
								JOINT LeftShoulder_split
								{
									OFFSET 6.292450 5.785301 -0.669000
									CHANNELS 3 Xrotation Yrotation Zrotation
									JOINT LeftArm
									{
										OFFSET 13.907140 -6.093903 1.965100
										CHANNELS 3 Xrotation Yrotation Zrotation
										JOINT LeftForeArm
										{
											OFFSET 34.140198 0.000000 0.000000
											CHANNELS 3 Xrotation Yrotation Zrotation
											JOINT LeftHand
											{
												OFFSET 40.960209 0.000000 0.000000
												CHANNELS 3 Xrotation Yrotation Zrotation
												End Site
												{
													OFFSET 0 0 0
												}
											}
										}
									}
								}
							}
						}
						JOINT RightShoulder_virtual
						{
							OFFSET 0.000000 0.000000 0.000000
							CHANNELS 3 Xrotation Yrotation Zrotation
							JOINT RightShoulder
							{
								OFFSET -6.292450 5.785301 -0.669000
								CHANNELS 3 Xrotation Yrotation Zrotation
								JOINT RightShoulder_split
								{
									OFFSET -6.292450 5.785301 -0.669000
									CHANNELS 3 Xrotation Yrotation Zrotation
									JOINT RightArm
									{
										OFFSET -13.907140 -6.093903 1.965100
										CHANNELS 3 Xrotation Yrotation Zrotation
										JOINT RightForeArm
										{
											OFFSET -34.140198 0.000000 0.000000
											CHANNELS 3 Xrotation Yrotation Zrotation
											JOINT RightHand
											{
												OFFSET -40.960209 0.000000 0.000000
												CHANNELS 3 Xrotation Yrotation Zrotation
												End Site
												{
													OFFSET 0 0 0
												}
											}
										}
									}
								}
							}
						}
					}
				}
			}
		}
	}
}
MOTION
Frames: 6
Frame Time: 0.03333333
-12.447951 96.642776 4.409966 0.000000 0.000000 0.000000 4.347654 -41.182738 11.925352 -54.156983 32.628258 35.509959 38.960745 -26.196243 2.667695 4.343714 0.497782 -13.290756 -0.953569 -6.111300 0.978250 0.000000 0.000000 0.000000 4.347654 -41.182738 11.925352 -19.639678 -7.528521 -31.178280 49.340057 0.994320 -6.621878 -33.248190 -6.795596 24.013482 0.528350 2.970033 1.471341 0.000000 0.000000 0.000000 4.347654 -41.182738 11.925352 17.601992 -5.535638 1.976365 28.357199 -3.983564 -2.018754 0.000000 0.000000 0.000000 0.000000 0.000000 0.000000 17.259821 -2.365354 -3.582331 3.399040 0.434952 18.470315 8.197272 1.394248 -12.300078 0.000000 0.000000 0.000000 17.259821 -2.365354 -3.582331 2.328586 -30.676866 2.585258 0.000000 0.000000 0.000000 -33.628826 -25.347563 -29.746512 -7.805130 -23.996575 1.221994 0.000000 0.000000 0.000000 17.259821 -2.365354 -3.582331 -0.608452 13.107901 25.085217 0.000000 0.000000 0.000000 -20.872674 -20.553219 19.260997 -11.667039 82.321360 10.693519 0.000000 0.000000 0.000000 
-11.495652 97.216843 4.778004 0.000000 0.000000 0.000000 2.024499 -39.632415 9.367102 -54.049841 32.775568 35.744350 39.074611 -26.610091 2.656509 4.900954 -1.204382 -11.818806 -0.953569 -6.111299 0.978250 0.000000 0.000000 0.000000 2.024499 -39.632415 9.367102 -16.686984 -9.096985 -30.523630 47.447108 0.505317 -6.491095 -32.229620 -7.365463 24.538483 0.528350 2.970031 1.471341 0.000000 0.000000 0.000000 2.024499 -39.632415 9.367102 17.185856 -5.072839 2.192720 27.212090 -3.554405 -1.949087 0.000000 0.000000 0.000000 0.000000 0.000000 0.000000 16.129915 -2.065774 -3.134687 1.254574 1.689152 17.729125 7.834694 0.608334 -11.472238 0.000000 0.000000 0.000000 16.129915 -2.065774 -3.134687 2.180222 -30.084695 2.687285 0.000000 0.000000 0.000000 -32.508934 -24.092768 -31.048158 -8.013986 -21.085960 0.699061 0.000000 0.000000 0.000000 16.129915 -2.065774 -3.134687 -0.531454 12.423656 23.593314 0.000000 0.000000 0.000000 -19.558394 -22.044760 20.084142 3.472941 83.560261 -3.939591 0.000000 0.000000 0.000000 
-10.449380 97.687294 5.153275 0.000000 0.000000 0.000000 0.514720 -37.907256 7.426103 -54.499292 32.853220 35.846786 39.340141 -26.956704 2.659600 5.479509 -2.848283 -10.284058 -0.953569 -6.111299 0.978250 0.000000 0.000000 0.000000 0.514720 -37.907256 7.426103 -14.222966 -10.346143 -29.746358 45.657557 -0.093132 -6.371019 -31.161761 -8.114243 25.125126 0.528350 2.970028 1.471341 0.000000 0.000000 0.000000 0.514720 -37.907256 7.426103 16.617389 -4.514707 2.341400 25.694743 -3.058032 -1.812176 0.000000 0.000000 0.000000 0.000000 0.000000 0.000000 14.600556 -1.729657 -2.630741 -1.047858 2.501034 15.709579 6.691307 -0.589657 -9.645249 0.000000 0.000000 0.000000 14.600556 -1.729657 -2.630741 2.003542 -29.369745 2.652560 0.000000 0.000000 0.000000 -32.151360 -23.761185 -32.868018 -7.911247 -17.129739 0.318777 0.000000 0.000000 0.000000 14.600556 -1.729657 -2.630741 -0.689631 12.059405 21.568698 0.000000 0.000000 0.000000 -17.317849 -24.231752 21.746170 11.488177 83.685370 -11.687282 0.000000 0.000000 0.000000 
-9.395787 98.054581 5.518360 0.000000 0.000000 0.000000 -0.070327 -37.031763 6.008605 -55.437760 32.751054 36.361933 39.820570 -27.033149 2.689718 5.754731 -3.963946 -9.030319 -0.953569 -6.111299 0.978250 0.000000 0.000000 0.000000 -0.070327 -37.031763 6.008605 -12.813576 -10.937626 -28.896386 44.139995 -0.472744 -6.252583 -30.050732 -8.478003 25.643119 0.528350 2.970031 1.471341 0.000000 0.000000 0.000000 -0.070327 -37.031763 6.008605 16.008239 -3.857364 2.376076 23.874131 -2.378890 -1.661040 0.000000 0.000000 0.000000 0.000000 0.000000 0.000000 12.746257 -1.195063 -2.114459 -3.488295 3.043676 13.824515 5.706765 -1.287615 -8.005478 0.000000 0.000000 0.000000 12.746257 -1.195063 -2.114459 1.808350 -28.559743 2.531823 0.000000 0.000000 0.000000 -31.661591 -22.934315 -34.762716 -7.765063 -14.016621 -0.175866 0.000000 0.000000 0.000000 12.746257 -1.195063 -2.114459 -0.998216 12.045919 18.894803 0.000000 0.000000 0.000000 -14.805786 -26.204407 23.853555 8.172916 83.221962 -7.948739 0.000000 0.000000 0.000000 
-8.423307 98.353523 5.852787 0.000000 0.000000 0.000000 -0.184615 -37.291559 4.919642 -56.366204 32.538847 37.294831 40.391908 -26.774548 2.740347 5.635545 -4.464539 -8.219866 -0.953569 -6.111299 0.978250 0.000000 0.000000 0.000000 -0.184615 -37.291559 4.919642 -12.359665 -10.964462 -28.245822 42.947823 -0.469908 -6.130282 -28.978061 -8.231145 26.023280 0.528350 2.970029 1.471341 0.000000 0.000000 0.000000 -0.184615 -37.291559 4.919642 15.439122 -3.227933 2.126937 21.959185 -1.638656 -1.746983 0.000000 0.000000 0.000000 0.000000 0.000000 0.000000 10.776223 -0.487439 -1.926383 -6.460392 3.354908 13.787556 6.123654 -0.046058 -7.878038 0.000000 0.000000 0.000000 10.776223 -0.487439 -1.926383 1.535514 -27.653771 2.236985 0.000000 0.000000 0.000000 -29.438068 -19.826975 -35.379560 -7.849066 -15.756374 -1.303344 0.000000 0.000000 0.000000 10.776223 -0.487439 -1.926383 -1.558140 12.888400 17.036913 0.000000 0.000000 0.000000 -13.097034 -27.809528 25.131686 -2.297153 81.906768 3.149282 0.000000 0.000000 0.000000 
-7.469165 98.439964 6.096558 0.000000 0.000000 0.000000 -0.147237 -38.209625 3.822581 -57.540225 31.994908 38.672275 41.345136 -26.324575 2.830891 5.256102 -4.625997 -7.643901 -0.953569 -6.111298 0.978250 0.000000 0.000000 0.000000 -0.147237 -38.209625 3.822581 -12.547713 -10.645838 -27.608185 42.262977 -0.239197 -6.035085 -28.060266 -7.657769 26.318281 0.528350 2.970030 1.471341 0.000000 0.000000 0.000000 -0.147237 -38.209625 3.822581 14.875346 -2.510987 1.735038 20.033211 -0.721245 -1.910826 0.000000 0.000000 0.000000 0.000000 0.000000 0.000000 8.779102 0.422446 -1.822622 -8.595878 3.213182 14.508620 6.452801 2.900516 -8.906729 0.000000 0.000000 0.000000 8.779102 0.422446 -1.822622 1.256036 -26.695943 1.951583 0.000000 0.000000 0.000000 -26.924471 -16.392427 -35.487201 -8.215784 -18.819837 -2.744738 0.000000 0.000000 0.000000 8.779102 0.422446 -1.822622 -2.213869 13.915519 15.469820 0.000000 0.000000 0.000000 -11.179721 -29.460453 26.677548 -9.614309 79.698185 10.753766 0.000000 0.000000 0.000000 
